<svg xmlns="http://www.w3.org/2000/svg" version="1.1" xmlns:xlink="http://www.w3.org/1999/xlink" xmlns:svgjs="http://svgjs.com/svgjs" width="512" height="512" x="0" y="0" viewBox="0 0 507.2 507.2" style="enable-background:new 0 0 512 512" xml:space="preserve" class=""><g><circle cx="253.6" cy="253.6" r="253.6" style="" fill="#5964CD" data-original="#32ba7c" class=""></circle><path d="m188.8 368 130.4 130.4c108-28.8 188-127.2 188-244.8v-7.2L404.8 152l-216 216z" style="" fill="#5964CD" data-original="#0aa06e" class=""></path><path d="M260 310.4c11.2 11.2 11.2 30.4 0 41.6l-23.2 23.2c-11.2 11.2-30.4 11.2-41.6 0L93.6 272.8c-11.2-11.2-11.2-30.4 0-41.6l23.2-23.2c11.2-11.2 30.4-11.2 41.6 0L260 310.4z" style="" fill="#FFFFFF" data-original="#ffffff" class=""></path><path d="M348.8 133.6c11.2-11.2 30.4-11.2 41.6 0l23.2 23.2c11.2 11.2 11.2 30.4 0 41.6l-176 175.2c-11.2 11.2-30.4 11.2-41.6 0l-23.2-23.2c-11.2-11.2-11.2-30.4 0-41.6l176-175.2z" style="" fill="#FFFFFF" data-original="#ffffff" class=""></path></g></svg>